<svg width="22" height="18" viewBox="0 0 22 18" fill="none" xmlns="http://www.w3.org/2000/svg">
<path d="M21.8403 11.1845C21.8403 14.5035 19.1497 17.1941 15.8307 17.1941L6.81634 17.1941C5.89439 17.1941 5.14701 16.4467 5.14701 15.5248L5.14701 4.17329C5.14701 2.3294 6.64178 0.83463 8.48567 0.83463L20.171 0.834631C21.0929 0.834631 21.8403 1.58202 21.8403 2.50396L21.8403 11.1845Z" fill="#E8F5E9"/>
<path d="M8.14849 1.83618C6.95617 1.83618 5.98552 2.81571 5.98552 4.01311C5.98552 4.77059 6.37449 5.43942 6.96185 5.82928C6.25244 6.06648 5.63859 6.50982 5.18835 7.0898C4.93944 6.89833 4.6613 6.74435 4.36146 6.63401C4.81614 6.29646 5.11327 5.75422 5.11327 5.14479C5.11327 4.12925 4.29193 3.29791 3.28255 3.29791C2.27316 3.29791 1.45183 4.12925 1.45183 5.14479C1.45183 5.75457 1.7492 6.29706 2.20426 6.63461C0.999481 7.07919 0.139038 8.24317 0.139038 9.61302V10.5753C0.139161 10.6486 0.168504 10.7189 0.220531 10.7706C0.272558 10.8224 0.342957 10.8512 0.416313 10.851H4.63804C4.64828 10.8521 4.65851 10.8527 4.66874 10.8526H11.6285C11.6387 10.8527 11.6491 10.8521 11.6592 10.851H15.8812C16.033 10.8503 16.1559 10.7272 16.1563 10.5753V9.61302C16.1563 8.24317 15.2973 7.07919 14.0932 6.63449C14.5482 6.29706 14.8456 5.75444 14.8456 5.14467C14.8456 4.12913 14.0243 3.29779 13.0149 3.29779C12.0055 3.29779 11.1842 4.12913 11.1842 5.14467C11.1842 5.7541 11.4814 6.29643 11.9361 6.63389C11.6356 6.74448 11.3574 6.89896 11.1081 7.0909C10.6581 6.51057 10.0451 6.06662 9.3357 5.82928C9.92291 5.43942 10.312 4.77059 10.312 4.01311C10.312 2.81571 9.34088 1.83618 8.14856 1.83618H8.14849ZM8.14849 2.38852C9.04024 2.38852 9.75913 3.11223 9.75913 4.01311C9.75913 4.90694 9.05145 5.62362 8.16957 5.63511C8.16255 5.63511 8.15564 5.63412 8.14849 5.63412C8.14134 5.63412 8.13456 5.63511 8.12741 5.63511C7.24553 5.62376 6.53833 4.90697 6.53833 4.01311C6.53833 3.11211 7.25661 2.38852 8.14837 2.38852H8.14849ZM3.28258 3.85021C3.99014 3.85021 4.56097 4.42448 4.56097 5.14476C4.56097 5.86021 3.99752 6.43202 3.29662 6.43978C3.29194 6.43978 3.28738 6.43929 3.28257 6.43929C3.27788 6.43929 3.27332 6.43978 3.26851 6.43978C2.56762 6.43201 2.00417 5.86008 2.00417 5.14476C2.00417 4.42452 2.575 3.85021 3.28256 3.85021H3.28258ZM13.0147 3.85021C13.7223 3.85021 14.2931 4.42448 14.2931 5.14476C14.2931 5.86021 13.7297 6.43202 13.0288 6.43978C13.0241 6.43978 13.0195 6.43929 13.0147 6.43929C13.01 6.43929 13.0055 6.43978 13.0007 6.43978C12.2998 6.43201 11.7363 5.86008 11.7363 5.14476C11.7363 4.42452 12.3071 3.85021 13.0147 3.85021H13.0147ZM8.12734 6.18741C8.13437 6.18753 8.14128 6.1884 8.14843 6.1884C8.15545 6.1884 8.16236 6.18741 8.16951 6.18741C9.93808 6.19875 11.3535 7.62632 11.3535 9.41336L11.3534 10.3001H4.94375V9.41336C4.94375 7.62616 6.35874 6.19877 8.12709 6.18741H8.12734ZM3.26143 6.99275C3.26846 6.99287 3.27536 6.99373 3.28252 6.99373C3.28967 6.99373 3.29645 6.99275 3.3036 6.99275C3.90179 6.99755 4.44772 7.20382 4.88242 7.5489C4.57136 8.09928 4.39148 8.73456 4.39148 9.41352V10.2981H0.69115V9.61299C0.69115 8.16063 1.83306 7.00408 3.26137 6.99262L3.26143 6.99275ZM12.9936 6.99275C13.0007 6.99287 13.0075 6.99373 13.0147 6.99373C13.0218 6.99373 13.0286 6.99275 13.0357 6.99275C14.464 7.00409 15.606 8.16079 15.606 9.61312V10.2981H11.9037L11.9036 9.41352C11.9036 8.73494 11.7242 8.10013 11.4138 7.54988C11.8486 7.20431 12.3949 6.99754 12.9936 6.99275H12.9936Z" fill="#103E13"/>
</svg>
