<svg id="Layer_1" data-name="Layer 1" xmlns="http://www.w3.org/2000/svg" viewBox="0 0 14.64 10.48"><defs><style>.cls-1,.cls-2,.cls-4{fill:none;}.cls-1,.cls-4{stroke:#4caf4f;}.cls-2{stroke:#000;stroke-miterlimit:10;}.cls-3{fill:#4caf4f;}.cls-4{stroke-width:0.75px;}</style></defs><title>People</title><circle class="cls-1" cx="5.21" cy="3.67" r="3.17"/><path class="cls-2" d="M8.08,4.62" transform="translate(-1.23 -0.94)"/><path class="cls-3" d="M11,7.7V6.78a2.46,2.46,0,1,0,0-4.92,2.24,2.24,0,0,0-.52.06l-.2-.9A3.53,3.53,0,0,1,11,.94,3.38,3.38,0,1,1,11,7.7Z" transform="translate(-1.23 -0.94)"/><path class="cls-3" d="M11.64,11.05H10.45c0-1.51-1.8-2.74-4-2.74s-4,1.23-4,2.74H1.23c0-2,2.33-3.55,5.21-3.55S11.64,9.09,11.64,11.05Z" transform="translate(-1.23 -0.94)"/><ellipse class="cls-3" cx="0.6" cy="10.07" rx="0.6" ry="0.41"/><ellipse class="cls-3" cx="9.82" cy="10.07" rx="0.6" ry="0.41"/><path class="cls-2" d="M10.16,2.85" transform="translate(-1.23 -0.94)"/><path d="M10.47,1" transform="translate(-1.23 -0.94)"/><circle class="cls-3" cx="9.19" cy="0.53" r="0.46"/><circle class="cls-3" cx="9.8" cy="6.29" r="0.47"/><path class="cls-4" d="M11,7.23s4.17-.27,4.46,3.46" transform="translate(-1.23 -0.94)"/><circle class="cls-3" cx="14.26" cy="9.75" r="0.38"/></svg>